<svg xmlns="http://www.w3.org/2000/svg" viewBox="0 0 256 256" role="img" aria-label="Speaking engagements icon">
  <path fill="#D4D943" d="M168 20c-9.4 0-18.2 3.7-24.8 10.2l-9.5 9.6-45.5 6.5c-6.9 1-12.2 6.9-12.2 13.9v28.8c0 7 5.1 12.9 12.1 13.9l16.9 2.4V168c0 22.1 17.9 40 40 40h20c6.6 0 12-5.4 12-12s-5.4-12-12-12h-20c-8.8 0-16-7.2-16-16v-35.4l14.7 2.1 9.5 9.6c6.6 6.5 15.4 10.2 24.8 10.2 19.3 0 35-15.7 35-35V55c0-19.3-15.7-35-35-35Zm-68.2 45.6 25.3-3.6v63.9l-25.3-3.6V65.6ZM192 119.5c0 6.1-5 11-11 11-3 0-5.7-1.1-7.8-3.2l-12.2-12.4V61.1l12.2-12.4c2.1-2 4.8-3.2 7.8-3.2 6.1 0 11 4.9 11 11v63Zm-96 8.9c-5.5 0-10 4.5-10 10v44.1c0 21 17 38 38 38h10c5.5 0 10-4.5 10-10s-4.5-10-10-10h-10c-10 0-18-8-18-18v-44.1c0-5.5-4.5-10-10-10Z"/>
</svg>
