<svg xmlns="http://www.w3.org/2000/svg" viewBox="0 0 512 512" width="512" height="512" aria-label="LinkedIn, X, Instagram icons">

  <!-- LinkedIn (top left, bold & large) -->
  <g transform="translate(40 40)">
    <rect width="200" height="200" rx="36" fill="#0A66C2"></rect>
    <circle cx="58" cy="56" r="14" fill="#FFFFFF"></circle>
    <rect x="44" y="84" width="28" height="84" fill="#FFFFFF"></rect>
    <path d="M90 84h30v14c5-9 15-16 30-16 34 0 40 22 40 50v36h-30v-32c0-14-4-24-18-24s-22 10-22 24v32H90V84z" fill="#FFFFFF"></path>
  </g>

  <!-- X (top right, bold & large) -->
  <g transform="translate(272 40)">
    <rect width="200" height="200" rx="36" fill="#000000"></rect>
    <path d="M60 56l56 72-56 72h36l40-52 40 52h36l-56-72 56-72h-36l-40 52-40-52z" fill="#FFFFFF"></path>
  </g>

  <!-- Instagram (bottom center, bold & large) -->
  <defs>
    <linearGradient id="igBold" x1="0" y1="0" x2="1" y2="1">
      <stop offset="0%" stop-color="#F58529"></stop>
      <stop offset="40%" stop-color="#DD2A7B"></stop>
      <stop offset="70%" stop-color="#8134AF"></stop>
      <stop offset="100%" stop-color="#515BD4"></stop>
    </linearGradient>
  </defs>

  <g transform="translate(156 272)">
    <rect width="200" height="200" rx="36" fill="url(#igBold)"></rect>
    <rect x="54" y="54" width="92" height="92" rx="28" fill="none" stroke="#FFFFFF" stroke-width="14"></rect>
    <circle cx="100" cy="100" r="26" fill="none" stroke="#FFFFFF" stroke-width="14"></circle>
    <circle cx="138" cy="62" r="7" fill="#FFFFFF"></circle>
  </g>

</svg>
