<svg xmlns="http://www.w3.org/2000/svg" viewBox="0 0 256 256" role="img" aria-label="People reached icon">
  <path fill="#D4D943" d="M88 132c22.1 0 40-17.9 40-40S110.1 52 88 52 48 69.9 48 92s17.9 40 40 40Zm0-56c8.8 0 16 7.2 16 16s-7.2 16-16 16-16-7.2-16-16 7.2-16 16-16Zm80 52c19.9 0 36-16.1 36-36s-16.1-36-36-36-36 16.1-36 36 16.1 36 36 36Zm0-52c8.8 0 16 7.2 16 16s-7.2 16-16 16-16-7.2-16-16 7.2-16 16-16ZM28 216c0-30.9 25.1-56 56-56h8c14.4 0 27.5 5.4 37.4 14.3 3.3 3 8.3 2.7 11.3-.6 3-3.3 2.7-8.3-.6-11.3C127.3 150.5 110 144 92 144h-8c-39.8 0-72 32.2-72 72 0 4.4 3.6 8 8 8s8-3.6 8-8Zm148 0c0-19.5-9.1-37.8-24.7-49.4-3.5-2.6-4.2-7.6-1.6-11.2 2.6-3.5 7.6-4.2 11.2-1.6C180.4 167.6 192 191 192 216c0 4.4-3.6 8-8 8s-8-3.6-8-8Zm36 0c0-13.2-6.2-25.7-16.7-33.7-3.5-2.6-4.2-7.6-1.6-11.2 2.6-3.5 7.6-4.2 11.2-1.6C222.2 181.4 232 198.3 232 216c0 4.4-3.6 8-8 8s-8-3.6-8-8Z"/>
</svg>
